<?xml version="1.0" encoding="UTF-8" standalone="no"?>
<!-- Created with Inkscape (http://www.inkscape.org/) -->

<svg
   xmlns:dc="http://purl.org/dc/elements/1.1/"
   xmlns:cc="http://creativecommons.org/ns#"
   xmlns:rdf="http://www.w3.org/1999/02/22-rdf-syntax-ns#"
   xmlns:svg="http://www.w3.org/2000/svg"
   xmlns="http://www.w3.org/2000/svg"
   xmlns:sodipodi="http://sodipodi.sourceforge.net/DTD/sodipodi-0.dtd"
   xmlns:inkscape="http://www.inkscape.org/namespaces/inkscape"
   width="521.995mm"
   height="195.60486mm"
   viewBox="0 0 521.99498 195.60485"
   version="1.1"
   id="svg8"
   sodipodi:docname="cone.svg"
   inkscape:version="0.92.4 (5da689c313, 2019-01-14)">
  <defs
     id="defs2" />
  <sodipodi:namedview
     id="base"
     pagecolor="#ffffff"
     bordercolor="#666666"
     borderopacity="1.0"
     inkscape:pageopacity="0.0"
     inkscape:pageshadow="2"
     inkscape:zoom="0.35"
     inkscape:cx="995.42972"
     inkscape:cy="684.29728"
     inkscape:document-units="mm"
     inkscape:current-layer="layer1"
     showgrid="false"
     inkscape:window-width="1920"
     inkscape:window-height="1013"
     inkscape:window-x="-9"
     inkscape:window-y="29"
     inkscape:window-maximized="1"
     fit-margin-top="0"
     fit-margin-left="0"
     fit-margin-right="0"
     fit-margin-bottom="0" />
  <metadata
     id="metadata5">
    <rdf:RDF>
      <cc:Work
         rdf:about="">
        <dc:format>image/svg+xml</dc:format>
        <dc:type
           rdf:resource="http://purl.org/dc/dcmitype/StillImage" />
        <dc:title></dc:title>
      </cc:Work>
    </rdf:RDF>
  </metadata>
  <g
     inkscape:label="Layer 1"
     inkscape:groupmode="layer"
     id="layer1"
     transform="translate(770.83035,-209.60855)">
    <g
       id="g838"
       transform="rotate(20.400643,-950.47811,245.50714)">
      <path
         style="fill:#95582e;stroke-width:0.26458335"
         d="m -332.05208,177.41732 c -4.0633,-0.4602 -8.44109,-1.57724 -11.02883,-2.81411 -1.58901,-0.7595 -1.36928,-1.03079 0.99455,-1.22792 4.37147,-0.36457 11.78621,-1.96321 16.8473,-3.63232 2.4474,-0.80714 2.4474,-0.80714 4.8948,0 5.06109,1.66911 12.47583,3.26775 16.8473,3.63232 2.36383,0.19713 2.58356,0.46842 0.99455,1.22792 -2.72238,1.30122 -6.88246,2.33719 -11.34914,2.82622 -2.97857,0.3261 -15.28662,0.31792 -18.20053,-0.0121 z m -22.62187,-8.44948 c -6.28832,-0.9738 -11.8327,-3.95621 -16.5672,-8.91176 -3.41967,-3.57932 -8.05668,-9.61888 -7.83288,-10.20208 0.0704,-0.18355 0.88629,-0.60064 1.81303,-0.92687 1.73216,-0.60975 13.43815,-3.23281 14.38497,-3.22336 0.29104,0.003 1.95791,1.14894 3.70416,2.54675 8.09521,6.4799 16.6436,11.97028 25.33526,16.27209 1.85616,0.91868 3.33518,1.79128 3.28672,1.93911 -0.1019,0.31082 -3.93651,1.2173 -8.51364,2.01258 -3.59572,0.62475 -12.86972,0.91796 -15.61042,0.49354 z m 52.3875,0.10464 c -4.28156,-0.4635 -12.60169,-2.16758 -12.74698,-2.61076 -0.0485,-0.14783 1.43056,-1.02043 3.28672,-1.93911 8.69166,-4.30181 17.24005,-9.79219 25.33526,-16.27209 1.74625,-1.39781 3.41312,-2.54385 3.70417,-2.54675 0.94681,-0.009 12.6528,2.61361 14.38496,3.22336 0.92674,0.32623 1.7426,0.74332 1.81304,0.92687 0.22379,0.5832 -4.41322,6.62276 -7.83289,10.20208 -3.97662,4.16228 -8.63587,6.99337 -13.65678,8.29822 -2.35005,0.61075 -3.23741,0.69573 -7.9375,0.76018 -2.91042,0.0399 -5.76792,0.021 -6.35,-0.042 z m -22.88646,-5.62308 c -6.01426,-2.24838 -13.84147,-6.45256 -21.16667,-11.36911 -4.04771,-2.71676 -10.31875,-7.40777 -10.31875,-7.71888 0,-0.34344 1.25535,-0.87274 6.4823,-2.73316 10.00871,-3.56241 16.03372,-6.092 22.9526,-9.63664 4.43177,-2.27046 4.43177,-2.27046 8.86354,0 6.91888,3.54464 12.94389,6.07423 22.95261,9.63664 5.22694,1.86042 6.48229,2.38972 6.48229,2.73316 0,0.31111 -6.27104,5.00212 -10.31875,7.71888 -5.5652,3.73526 -11.36068,7.03955 -16.40417,9.35281 -2.98357,1.36845 -6.69131,2.79196 -7.21751,2.77101 -0.17772,-0.007 -1.21608,-0.3467 -2.30749,-0.75471 z m -49.74167,-21.12788 c -4.17458,-1.1296 -6.49606,-3.6208 -8.89646,-9.54689 -1.25314,-3.09373 -2.48062,-7.94187 -2.48062,-9.79763 0,-1.46174 0.3006,-2.1517 0.93746,-2.1517 0.16635,0 1.64064,1.79511 3.2762,3.98912 3.91627,5.25346 7.02544,8.86802 11.31563,13.15497 1.93639,1.93493 3.52071,3.62171 3.52071,3.74839 0,0.30249 -2.36527,0.82264 -4.36562,0.96005 -1.00918,0.0693 -2.21402,-0.0605 -3.3073,-0.35631 z m 99.88021,0.32778 c -0.14552,-0.0521 -0.94919,-0.22969 -1.78594,-0.39475 -0.83674,-0.16505 -1.52135,-0.40518 -1.52135,-0.5336 0,-0.12843 1.58432,-1.81663 3.52071,-3.75156 4.29019,-4.28695 7.39936,-7.90151 11.31563,-13.15497 1.63556,-2.19401 3.10985,-3.98912 3.2762,-3.98912 1.17519,0 1.23612,2.51609 0.16136,6.66285 -1.85546,7.1589 -4.63014,12.00713 -7.88591,13.77914 -1.99158,1.08395 -5.82324,1.83182 -7.0807,1.38201 z m -89.87644,-5.25046 c -5.69262,-5.25345 -11.08204,-11.56081 -16.19618,-18.95479 -3.24524,-4.69192 -3.24494,-4.6914 -2.90951,-5.02683 0.15264,-0.15264 3.00716,-1.03897 6.34337,-1.96962 8.49924,-2.37088 15.39863,-4.84968 20.03118,-7.19673 1.26533,-0.64108 1.26533,-0.64108 5.49886,3.46178 7.41709,7.18815 11.92088,10.84723 19.62799,15.94664 2.72852,1.80532 4.96094,3.33412 4.96094,3.39731 0,0.22847 -6.83948,3.5215 -10.84792,5.22299 -6.94942,2.94987 -21.35959,8.12488 -22.62429,8.12488 -0.43237,0 -1.64047,-0.93478 -3.88444,-3.00563 z m 74.00144,1.04085 c -7.47833,-2.60695 -11.38895,-4.08741 -16.27187,-6.1601 -4.00844,-1.70149 -10.84792,-4.99452 -10.84792,-5.22299 0,-0.0632 2.23242,-1.59199 4.96094,-3.39731 7.70711,-5.09941 12.2109,-8.75849 19.62799,-15.94664 4.23353,-4.10286 4.23353,-4.10286 5.49886,-3.46178 4.63254,2.34705 11.53194,4.82585 20.03118,7.19673 3.33621,0.93065 6.19073,1.81698 6.34337,1.96962 0.33543,0.33543 0.33573,0.33491 -2.90951,5.02683 -5.11414,7.39398 -10.50356,13.70134 -16.19618,18.95479 -2.51245,2.31861 -3.41961,3.00244 -3.96875,2.99169 -0.39152,-0.008 -3.21217,-0.88554 -6.26811,-1.95084 z m -36.23068,-16.65513 c -5.10259,-3.20204 -9.57284,-6.39654 -13.37869,-9.56058 -3.85024,-3.20095 -11.1125,-10.1112 -11.1125,-10.57387 0,-0.19264 1.76028,-1.35621 3.91174,-2.585713 5.03953,-2.879958 10.84176,-6.456947 18.42638,-11.359587 3.33644,-2.156648 6.2621,-3.921178 6.50146,-3.921178 0.23936,0 3.16502,1.76453 6.50146,3.921178 7.58462,4.90264 13.38685,8.479629 18.42638,11.359587 2.15146,1.229503 3.91174,2.393073 3.91174,2.585713 0,0.46267 -7.26226,7.37292 -11.1125,10.57387 -1.67349,1.39127 -4.47921,3.55363 -6.23494,4.80524 -3.99379,2.84704 -10.96369,7.23504 -11.49214,7.23504 -0.21828,0 -2.17506,-1.11586 -4.34839,-2.4797 z m -52.49887,-15.28004 c -0.52059,-1.37221 -2.18538,-7.458993 -2.714,-9.922941 -0.39497,-1.840971 -0.59773,-3.938593 -0.68723,-7.109405 -0.11011,-3.90103 -0.0512,-4.865053 0.44358,-7.264512 0.6282,-3.046301 1.4325,-5.183621 2.03811,-5.416013 0.51093,-0.196067 3.10265,2.270006 4.6234,4.399265 4.62474,6.475267 7.19189,9.599954 12.76494,15.53726 1.69706,1.807985 3.04409,3.415326 2.99339,3.571876 -0.23317,0.71997 -15.09208,6.17195 -18.15676,6.66201 -0.95609,0.15288 -1.0919,0.10529 -1.30543,-0.45754 z m 111.7483,0.37208 c -0.29104,-0.0709 -2.85088,-0.89122 -5.68854,-1.82285 -5.51898,-1.81193 -11.67617,-4.28664 -11.82743,-4.7537 -0.0507,-0.15655 1.29633,-1.763891 2.99339,-3.571876 5.57306,-5.937306 8.1402,-9.061993 12.76494,-15.53726 1.52075,-2.129259 4.11247,-4.595332 4.6234,-4.399265 0.60561,0.232392 1.40991,2.369712 2.03811,5.416013 0.49482,2.399459 0.55369,3.363482 0.44358,7.264512 -0.0895,3.170812 -0.29226,5.268434 -0.68723,7.109405 -0.5226,2.435852 -2.19149,8.545601 -2.7015,9.890071 -0.22461,0.5921 -0.74745,0.70019 -1.95872,0.40495 z m -91.12142,-12.40429 c -9.89598,-10.063722 -15.83568,-18.753218 -14.62902,-21.401549 0.17671,-0.387821 1.52902,-1.354926 3.54108,-2.532396 6.88138,-4.027028 11.88164,-7.10541 16.19756,-9.971922 2.46489,-1.637109 4.57145,-2.976563 4.68124,-2.976563 0.10979,0 1.73527,1.815704 3.61217,4.034896 6.13781,7.257178 12.00874,13.284609 17.36518,17.828063 0.70883,0.601239 1.21366,1.214692 1.12187,1.363223 -0.46585,0.753753 -20.19793,13.005296 -25.66412,15.934707 -2.61004,1.39876 -2.61004,1.39876 -6.22596,-2.278459 z m 64.63265,1.386311 c -6.05706,-3.372657 -22.72128,-13.747039 -23.91177,-14.886378 -0.3464,-0.331509 -0.23427,-0.513117 0.92307,-1.494959 5.38945,-4.572225 11.24401,-10.58118 17.39378,-17.852508 1.8769,-2.219192 3.50238,-4.034896 3.61217,-4.034896 0.10979,0 2.21635,1.339454 4.68124,2.976563 4.31592,2.866512 9.31618,5.944894 16.19756,9.971922 2.01206,1.17747 3.36437,2.144575 3.54108,2.532396 0.91901,2.017019 -2.3384,7.631057 -8.74894,15.078496 -2.61159,3.034015 -8.67421,9.326595 -9.31741,9.670823 -0.31691,0.169606 -1.48481,-0.35451 -4.37078,-1.961459 z m -30.72869,-19.669214 c -4.1423,-3.584768 -8.09953,-7.40605 -11.29588,-10.907827 -4.0043,-4.386927 -8.87728,-10.17211 -8.87728,-10.539066 0,-0.148429 1.16086,-1.202711 2.57968,-2.342851 4.51873,-3.63115 9.4019,-8.155621 14.73038,-13.648316 5.17952,-5.339149 5.17952,-5.339149 10.35904,0 5.32848,5.492695 10.21165,10.017166 14.73038,13.648316 1.41882,1.14014 2.57968,2.194422 2.57968,2.342851 0,0.366956 -4.87298,6.152139 -8.87728,10.539066 -4.19604,4.59699 -12.87383,12.681218 -13.6123,12.681218 -0.14697,0 -1.18937,-0.798025 -2.31642,-1.773391 z m -44.77715,-12.051089 c 0.006,-1.540258 0.58074,-6.910856 0.9535,-8.907714 1.08661,-5.820786 5.21935,-14.340301 6.93621,-14.298775 0.26347,0.0064 2.35452,2.575174 5.17008,6.3513 4.16292,5.583174 4.6846,6.392497 4.36707,6.77509 -0.89599,1.079609 -16.17197,10.675412 -16.99465,10.675412 -0.27485,0 -0.43364,-0.218721 -0.43221,-0.595313 z m 88.89774,-2.08157 c -5.37082,-3.279002 -11.66286,-7.426672 -12.14186,-8.003834 -0.31167,-0.375533 0.23483,-1.221861 4.37147,-6.769785 2.81556,-3.776126 4.90661,-6.344926 5.17008,-6.3513 1.14119,-0.0276 3.98516,4.751176 5.59655,9.403983 1.08961,3.146198 1.6559,5.991315 2.02314,10.164485 0.36237,4.117859 0.35711,4.234395 -0.19074,4.227547 -0.25466,-0.0032 -2.42755,-1.205177 -4.82864,-2.671096 z m -69.54955,-13.84812 c -1.88068,-2.502085 -1.88068,-2.502085 -1.35112,-5.09323 0.71331,-3.490169 1.89589,-6.969387 3.31259,-9.745813 1.33521,-2.6167 4.56725,-7.629234 6.56111,-10.17554 2.02393,-2.584714 4.96338,-5.55625 5.49624,-5.55625 0.52682,0 10.55156,11.445021 10.55156,12.046476 0,0.93947 -10.892,11.920611 -16.67234,16.808777 -4.10709,3.473183 -5.09761,4.217665 -5.61154,4.217665 -0.2232,0 -1.25212,-1.125937 -2.2865,-2.502085 z m 51.01546,1.137862 c -5.4558,-4.361416 -11.78619,-10.304388 -17.0895,-16.043614 -1.65307,-1.788946 -3.00558,-3.417318 -3.00558,-3.618605 0,-0.601455 10.02474,-12.046476 10.55156,-12.046476 0.53286,0 3.47231,2.971536 5.49624,5.55625 1.99386,2.546306 5.2259,7.55884 6.56111,10.17554 1.4167,2.776426 2.59928,6.255644 3.31259,9.745813 0.52956,2.591145 0.52956,2.591145 -1.35112,5.09323 -1.06638,1.418717 -2.07295,2.502085 -2.32473,2.502085 -0.24422,0 -1.21198,-0.613899 -2.15057,-1.364223 z m -27.41416,-28.020693 c -2.01362,-2.337224 -3.69743,-4.467024 -3.74179,-4.732888 -0.0924,-0.553608 1.58269,-2.021402 3.28516,-2.878641 3.58586,-1.805573 8.10504,-1.223683 11.42825,1.471501 0.72626,0.589011 1.10977,1.098917 1.05833,1.40714 -0.12909,0.773602 -7.3358,8.982386 -7.88587,8.982386 -0.29553,0 -1.90374,-1.649126 -4.14408,-4.249498 z"
         id="path840"
         inkscape:connector-curvature="0" />
    </g>
    <g
       id="g863"
       transform="translate(148.16667,157.2381)">
      <path
         style="fill:#95582e;stroke-width:0.26458332"
         d="m -825.20149,247.67441 -1.85208,-0.23396 -2.09898,-0.5407 -2.09899,-0.54069 -1.86976,-0.87164 -1.86977,-0.87164 -1.5875,-1.2093 -1.5875,-1.2093 -0.93482,-1.14583 -0.93483,-1.14582 -0.85759,-1.35619 -0.8576,-1.35618 -0.77267,-2.11716 -0.77266,-2.11716 -0.47262,-2.34749 -0.47262,-2.34749 0.008,-5.29166 0.008,-5.29167 0.46555,-3.15583 0.46555,-3.15584 0.51733,-2.53271 0.51734,-2.5327 0.68869,-2.38125 0.6887,-2.38125 1.19249,-3.04271 1.1925,-3.04271 1.05435,-2.11667 1.05436,-2.11666 0.94327,-1.5875 0.94327,-1.5875 1.77817,-2.3858 1.77817,-2.38579 2.07825,-1.98547 2.07825,-1.98547 1.71979,-1.22676 1.71979,-1.22675 1.98438,-1.06475 1.98437,-1.06474 1.72317,-0.64394 1.72316,-0.64394 1.86361,-0.42387 1.8636,-0.42386 3.11553,-0.28993 3.11553,-0.28993 2.95499,0.29185 2.955,0.29185 2.64583,0.65762 2.64584,0.65763 2.64583,1.32077 2.64583,1.32077 1.66886,1.33711 1.66887,1.33711 0.51296,0.84127 0.51296,0.84127 -5.3e-4,1.32291 -5.3e-4,1.32292 -0.28832,1.05833 -0.28833,1.05834 -0.3921,0.83945 -0.39211,0.83945 -0.88341,0.41921 -0.88341,0.4192 -0.6175,-0.23819 -0.61749,-0.23818 -2.11667,-1.88165 -2.11667,-1.88164 -2.55558,-1.32087 -2.55559,-1.32088 -2.3392,-0.55777 -2.33921,-0.55777 -4.10104,0.13197 -4.10105,0.13197 -1.64826,0.53145 -1.64828,0.53144 -2.05589,1.10846 -2.0559,1.10846 -1.78546,1.44199 -1.78547,1.44198 -1.36946,1.64263 -1.36946,1.64262 -1.11075,1.71979 -1.11075,1.71979 -0.82334,1.63776 -0.82335,1.63776 -1.07679,2.7028 -1.07679,2.7028 -1.03245,3.99382 -1.03246,3.99381 -0.47408,3.04271 -0.47409,3.04271 0.0146,5.42396 0.0146,5.42395 0.72876,2.37545 0.72875,2.37544 0.71128,1.31815 0.71128,1.31816 1.45521,1.48644 1.45521,1.48644 1.71979,0.84119 1.71979,0.84119 1.98437,0.42221 1.98438,0.4222 3.43958,-0.14378 3.43959,-0.14377 1.99252,-0.51931 1.99252,-0.51931 2.12908,-0.82106 2.12907,-0.82106 2.2284,-1.33135 2.22841,-1.33134 1.92945,-1.42657 1.92946,-1.42658 0.83339,-0.18304 0.83339,-0.18304 0.4783,0.59067 0.4783,0.59067 v 0.99291 0.99291 l -0.26829,1.42518 -0.26828,1.42517 -0.68916,1.41347 -0.68916,1.41348 -1.75454,1.29797 -1.75453,1.29798 -2.24896,1.1618 -2.24896,1.1618 -1.91875,0.68531 -1.91875,0.68531 -2.17646,0.5557 -2.17646,0.55571 -2.78395,0.37067 -2.78396,0.37068 -2.24896,-0.0283 -2.24896,-0.0283 -1.85208,-0.23397 z m 67.22666,-0.0952 -2.62335,-0.37269 -2.40374,-0.68601 -2.40373,-0.68602 -1.77572,-0.89805 -1.77571,-0.89805 -1.39929,-1.03592 -1.39928,-1.03591 -1.131,-1.2301 -1.13101,-1.23011 -1.04335,-1.61426 -1.04335,-1.61427 -0.78789,-2.04308 -0.7879,-2.04309 -0.5855,-2.75763 -0.58549,-2.75763 0.002,-5.15937 0.002,-5.15938 0.45075,-2.91041 0.45076,-2.91042 0.66068,-2.97635 0.66069,-2.97635 0.93444,-2.84449 0.93444,-2.84448 1.81745,-3.70416 1.81744,-3.70417 1.5005,-2.24896 1.5005,-2.24896 1.84351,-2.19522 1.84351,-2.19522 2.01487,-1.71918 2.01488,-1.71919 1.74021,-1.14646 1.74022,-1.14646 1.91463,-0.96419 1.91463,-0.96419 1.3643,-0.53776 1.36429,-0.53775 2.53342,-0.62924 2.53343,-0.62924 3.0427,-0.31331 3.04271,-0.31331 2.64584,0.17111 2.64583,0.17111 2.51076,0.41874 2.51077,0.41875 2.25173,0.79301 2.25174,0.793 1.85208,1.07228 1.85209,1.07228 2.11666,2.13981 2.11667,2.1398 0.89355,1.52359 0.89354,1.52359 0.65074,1.7837 0.65074,1.7837 0.51555,2.24896 0.51555,2.24896 0.15995,4.23357 0.15994,4.23357 -0.31737,3.17476 -0.31737,3.17477 -0.77816,3.90781 -0.77816,3.90783 -1.07488,3.23592 -1.07488,3.23594 -1.6755,3.43958 -1.67551,3.43958 -1.3879,2.11667 -1.38791,2.11666 -1.53939,1.88442 -1.53939,1.88442 -2.32574,2.17694 -2.32573,2.17695 -2.14605,1.42868 -2.14605,1.42867 -2.21957,1.03979 -2.21958,1.03978 -2.11412,0.68981 -2.11412,0.68981 -2.25151,0.41732 -2.2515,0.41732 -3.83646,0.0904 -3.83646,0.0904 -2.62335,-0.37268 z m 11.17076,-8.09553 1.66824,-0.26015 2.19936,-0.79582 2.19935,-0.79582 2.14246,-1.31848 2.14246,-1.31848 2.19202,-2.07534 2.19203,-2.07533 1.52439,-2.1178 1.52438,-2.1178 1.29215,-2.47967 1.29214,-2.47968 0.95134,-2.40794 0.95133,-2.40794 0.90371,-3.54518 0.90371,-3.54519 0.4516,-3.57188 0.4516,-3.57187 -0.12658,-4.89479 -0.12658,-4.89479 -0.59067,-1.85209 -0.59068,-1.85208 -0.79762,-1.50796 -0.79762,-1.50795 -1.67163,-1.60519 -1.67164,-1.60518 -1.93666,-0.90922 -1.93667,-0.90922 -2.21858,-0.44062 -2.21857,-0.44062 -3.99913,0.13835 -3.99914,0.13836 -1.5875,0.43477 -1.5875,0.43477 -2.64583,1.30196 -2.64583,1.30197 -2.11667,1.67861 -2.11667,1.67861 -1.35119,1.57074 -1.3512,1.57074 -1.26948,1.85208 -1.26948,1.85208 -1.53312,3.175 -1.53313,3.175 -0.66574,2.0039 -0.66574,2.00391 -0.65796,2.6263 -0.65795,2.62631 -0.45609,3.175 -0.4561,3.175 0.003,5.15937 0.003,5.15938 0.56533,2.06388 0.56533,2.06387 0.96812,1.84232 0.9681,1.84231 1.57553,1.45866 1.57552,1.45866 1.23409,0.62429 1.23409,0.62429 1.85208,0.58093 1.85208,0.58092 2.38125,0.19704 2.38125,0.19704 1.7198,-0.10109 1.71979,-0.1011 1.66824,-0.26015 z m 151.12863,8.32612 -0.66145,-0.0935 -2.24896,-0.30084 -2.24896,-0.30084 -2.34847,-0.76337 -2.34847,-0.76338 -1.77527,-0.93288 -1.77528,-0.93288 -1.63727,-1.37911 -1.63724,-1.37912 -1.08971,-1.45521 -1.08971,-1.45521 -1.01,-2.11666 -1.01002,-2.11667 -0.54462,-2.11667 -0.54461,-2.11666 -0.29697,-2.51354 -0.29697,-2.51354 0.16052,-4.10105 0.1605,-4.10104 0.40904,-2.59902 0.40905,-2.59902 0.54967,-2.56036 0.5497,-2.56035 1.18697,-3.57187 1.18698,-3.57188 1.55363,-3.25024 1.55363,-3.25025 1.76649,-2.70288 1.76652,-2.70288 1.8801,-2.22086 1.88013,-2.22086 2.12188,-1.78123 2.12188,-1.78122 1.85209,-1.18963 1.85208,-1.18963 1.71632,-0.863 1.71633,-0.86301 1.66785,-0.62777 1.66786,-0.62778 2.30542,-0.51352 2.30542,-0.51353 3.04165,-0.30575 3.04165,-0.30574 2.38125,0.17243 2.38125,0.17244 1.5875,0.26419 1.5875,0.26419 1.71979,0.55007 1.71979,0.55006 2.37051,1.21266 2.37051,1.21267 1.99512,1.99668 1.99511,1.99668 0.8508,1.73223 0.85079,1.73222 0.40206,1.7058 0.40206,1.7058 0.004,1.63037 0.004,1.63037 -0.39206,2.07379 -0.39206,2.0738 -1.05106,2.11667 -1.05103,2.11666 -1.16956,1.4129 -1.16956,1.41291 -1.92712,1.44974 -1.92712,1.44974 -2.27322,1.13734 -2.27325,1.13734 -2.04404,0.70162 -2.04404,0.70163 -3.29441,0.7873 -3.2944,0.78731 -4.18656,0.56635 -4.18655,0.56635 -9.78959,0.16244 -9.78958,0.16245 -0.35414,1.85208 -0.35415,1.85209 -0.0427,5.95312 -0.0427,5.95312 0.6101,2.10738 0.61011,2.10738 0.8451,1.59335 0.84511,1.59335 1.45677,1.45865 1.45677,1.45864 1.71823,0.8394 1.71823,0.83939 1.71979,0.47802 1.71979,0.47802 5.55625,-0.006 5.55625,-0.006 3.90573,-0.83232 3.9057,-0.83231 3.10576,-1.094 3.10573,-1.094 1.00348,-0.30236 1.00346,-0.30236 0.45175,0.28954 0.45173,0.28953 -0.0151,1.84782 -0.0151,1.84782 -0.77859,1.55834 -0.77856,1.55834 -1.21206,0.81007 -1.21208,0.81007 -2.09521,0.68993 -2.09523,0.68992 -3.175,0.66584 -3.175,0.66583 -3.57188,0.41354 -3.57187,0.41353 -2.91042,-0.0357 -2.91042,-0.0357 -0.66146,-0.0935 z m 9.6573,-44.54295 2.38125,-0.27422 2.8218,-0.53108 2.82184,-0.53109 2.07296,-0.67405 2.07298,-0.67405 1.90918,-0.91535 1.90921,-0.91535 1.61639,-1.4965 1.61639,-1.49649 0.84005,-1.60677 0.84003,-1.60676 v -2.77812 -2.77813 l -0.77737,-1.40323 -0.77737,-1.40323 -0.99907,-0.9026 -0.99907,-0.9026 -1.27757,-0.6474 -1.27756,-0.64739 -1.5762,-0.47974 -1.57621,-0.47974 -4.10104,0.0156 -4.10104,0.0156 -2.11667,0.57727 -2.11666,0.57726 -1.88844,0.89464 -1.88841,0.89465 -1.55117,0.99132 -1.55115,0.99132 -1.95636,1.88014 -1.95633,1.88014 -1.51955,2.03318 -1.51953,2.03318 -1.58716,3.1262 -1.58715,3.12619 -0.70244,1.9639 -0.70242,1.96389 0.1506,0.3925 0.15063,0.39249 8.26069,-0.16572 8.26069,-0.16573 2.38125,-0.27421 z m -111.50747,43.64283 -1.17621,-0.24732 -0.39442,-0.39442 -0.39442,-0.39442 7.07457,-35.26315 7.07458,-35.26314 0.28801,-0.74008 0.28801,-0.74009 0.76895,-0.39763 0.76895,-0.39764 2.34066,-0.0111 2.34065,-0.0111 0.55123,0.29501 0.55123,0.29501 0.24527,0.45828 0.24526,0.45828 -1.16764,6.0841 -1.16763,6.08409 0.0685,0.51003 0.0685,0.51004 1.03617,-1.56837 1.03618,-1.56837 2.5357,-2.52728 2.5357,-2.52729 2.49744,-1.66177 2.49743,-1.66178 1.81223,-0.91262 1.81223,-0.91263 2.31625,-0.77601 2.31625,-0.77602 2.6345,-0.43233 2.6345,-0.43233 2.41782,0.16173 2.41784,0.16173 2.03086,0.51941 2.03087,0.51941 1.63673,0.85835 1.63672,0.85835 1.87857,1.86012 1.87854,1.86013 0.94189,1.98437 0.94189,1.98438 0.48612,2.11667 0.48612,2.11666 -0.0135,3.96875 -0.0135,3.96875 -0.342,2.11667 -0.34203,2.11666 -4.58367,23.12409 -4.58364,23.12409 -0.63722,0.63722 -0.63722,0.63721 -1.88588,0.27991 -1.88589,0.27991 -1.62822,-0.28681 -1.62819,-0.2868 -0.36756,-0.30503 -0.36754,-0.30504 v -0.5582 -0.55821 l 4.62399,-23.15575 4.624,-23.15575 0.29551,-3.175 0.29548,-3.175 -0.17679,-2.06922 -0.17682,-2.06922 -0.40624,-1.37037 -0.40624,-1.37036 -0.52851,-1.05833 -0.5285,-1.05833 -0.83138,-0.88352 -0.83137,-0.88353 -1.24751,-0.63759 -1.24751,-0.6376 -1.76067,-0.24934 -1.76067,-0.24934 -2.16784,0.24632 -2.16786,0.24633 -1.43974,0.49535 -1.43974,0.49534 -1.71861,0.8631 -1.7186,0.86309 -1.84414,1.22403 -1.84414,1.22402 -2.65378,2.64811 -2.65378,2.64811 -1.53165,2.15835 -1.53165,2.15835 -1.58001,2.73416 -1.58,2.73417 -1.179,2.79246 -1.179,2.79246 -0.92466,3.21253 -0.92467,3.21253 -3.19049,16.22001 -3.19049,16.22001 -0.25988,0.60906 -0.25989,0.60906 -0.92492,0.38646 -0.92492,0.38645 -1.91876,0.11667 -1.91876,0.11666 -1.17621,-0.24732 z M -918.99628,128.25105 V 81.803556 l 4.16719,0.07287 4.16719,0.07286 0.20647,3.439583 0.20648,3.439583 0.14894,2.447396 0.14895,2.447395 h 0.21666 0.21667 l 1.2653,-1.773155 1.2653,-1.773156 1.84376,-1.941004 1.84377,-1.941007 1.61039,-1.210551 1.61038,-1.21055 1.77593,-0.894342 1.77593,-0.894342 2.32524,-0.674153 2.32524,-0.674153 2.71198,-0.211961 2.71198,-0.211957 2.71198,0.214146 2.71198,0.214145 2.07808,0.534123 2.07809,0.534119 2.54074,1.203558 2.54074,1.20356 1.89617,1.427173 1.89617,1.427176 1.89876,1.947799 1.89877,1.947799 1.60274,2.238261 1.60274,2.238264 1.26215,2.513541 1.26215,2.513544 0.80064,2.51354 0.80063,2.51354 0.47949,2.38125 0.47949,2.38125 -0.006,6.08542 -0.006,6.08541 -0.59736,2.77813 -0.59735,2.77812 -0.66033,1.98438 -0.66032,1.98437 -1.27026,2.64584 -1.27026,2.64583 -1.69032,2.3587 -1.69031,2.3587 -2.27287,2.27151 -2.27287,2.27151 -1.63242,1.19062 -1.63242,1.19063 -1.71511,0.97804 -1.71511,0.97805 -2.3171,0.92267 -2.3171,0.92266 -2.24896,0.48054 -2.24896,0.48054 -4.49792,-0.0255 -4.49791,-0.0255 -2.53698,-0.67604 -2.53698,-0.67604 -2.82672,-1.33335 -2.82671,-1.33336 -2.53122,-1.76478 -2.53122,-1.76478 -0.23866,0.23865 -0.23866,0.23866 -0.0685,14.01205 -0.0685,14.01206 -4.43177,0.0725 -4.43177,0.0725 z m 33.79502,16.38355 2.02272,-0.4178 1.69396,-0.67814 1.69396,-0.67814 1.89457,-1.24255 1.89456,-1.24256 1.85209,-1.9614 1.85208,-1.96141 0.95898,-1.45478 0.95897,-1.45479 1.05429,-2.11666 1.05428,-2.11667 0.54965,-1.60622 0.54965,-1.60621 0.39612,-1.70806 0.39613,-1.70807 0.31525,-2.90342 0.31524,-2.90344 -0.16972,-2.83769 -0.16973,-2.8377 -0.39575,-2.08622 -0.39575,-2.08623 -0.62079,-1.82295 -0.62079,-1.82296 -0.99452,-1.98437 -0.99451,-1.984375 -1.31037,-1.777011 -1.31036,-1.77701 -2.00871,-1.875914 -2.00871,-1.875912 -2.40463,-1.159788 -2.40464,-1.159785 -2.03936,-0.412811 -2.03937,-0.412811 -2.32626,0.0019 -2.32626,0.0019 -2.18208,0.523136 -2.18208,0.523135 -1.65438,0.833104 -1.65437,0.833101 -1.18163,0.810601 -1.18162,0.810602 -1.67463,1.716346 -1.67462,1.716347 -1.18666,1.78499 -1.18666,1.784985 -1.16382,2.46591 -1.16383,2.46591 -0.53124,2.11666 -0.53124,2.11667 -0.2813,2.56926 -0.2813,2.56926 v 10.32842 10.32841 l 0.97367,1.07774 0.97367,1.07773 2.61906,1.97291 2.61907,1.97291 1.82255,0.91783 1.82255,0.91782 1.97027,0.6614 1.97028,0.6614 1.41184,0.23475 1.41184,0.23476 2.59084,0.0309 2.59084,0.0309 z m 179.85603,8.96881 -0.79375,-0.10096 -2.24896,-0.42439 -2.24896,-0.42439 -1.85208,-0.65528 -1.85209,-0.65529 -2.51354,-1.28801 -2.51354,-1.28802 -2.24896,-1.69469 -2.24896,-1.69469 -2.39036,-2.47775 -2.39036,-2.47774 -1.22163,-1.71979 -1.22164,-1.71979 -1.20458,-2.40589 -1.20459,-2.40589 -0.6564,-1.95974 -0.6564,-1.95973 -0.59986,-2.77813 -0.59986,-2.77812 v -5.68854 -5.68855 l 0.59986,-2.77812 0.59986,-2.77813 0.65878,-1.96684 0.65879,-1.96685 0.91722,-1.985193 0.91722,-1.985201 1.76868,-2.662539 1.76869,-2.662539 2.39287,-2.398035 2.39288,-2.398035 1.85208,-1.376169 1.85209,-1.376169 2.64583,-1.296824 2.64583,-1.296823 1.83988,-0.559419 1.83988,-0.559419 2.26116,-0.401701 2.26117,-0.401699 3.83646,-0.0027 3.83646,-0.0027 2.64583,0.521491 2.64583,0.521494 2.27174,0.826362 2.27174,0.826365 2.08354,1.187355 2.08354,1.187355 1.9203,1.470832 1.9203,1.470834 2.11612,2.235526 2.1161,2.235522 1.723,2.588141 1.723,2.588141 0.91721,1.985197 0.91722,1.9852 0.6556,1.96685 0.65561,1.96684 0.4174,1.98438 0.41741,1.98437 0.29703,3.50573 0.29703,3.50573 -0.29703,3.50573 -0.29703,3.50573 -0.40797,1.91776 -0.40798,1.91776 -0.66078,2.02425 -0.66078,2.02425 -0.92147,1.99441 -0.92147,1.9944 -1.76347,2.66254 -1.76347,2.66254 -2.79497,2.79802 -2.79497,2.79803 -1.98437,1.39354 -1.98438,1.39354 -1.99506,1.00902 -1.99506,1.00903 -2.63515,0.80661 -2.63514,0.80662 -2.06967,0.27665 -2.06967,0.27665 -2.56054,-0.0396 -2.56054,-0.0396 -0.79375,-0.10097 z m 7.11571,-8.95049 1.93402,-0.39948 1.59236,-0.64703 1.59236,-0.64704 1.55569,-0.91356 1.55569,-0.91356 2.00149,-1.71007 2.00149,-1.71007 1.45722,-1.95225 1.45721,-1.95224 0.80837,-1.45521 0.80837,-1.45521 0.69379,-1.76473 0.69379,-1.76473 0.5283,-2.22444 0.52831,-2.22445 0.24695,-3.02983 0.24695,-3.02984 -0.24398,-2.80973 -0.24397,-2.80972 -0.39726,-1.88849 -0.39725,-1.88849 -0.88287,-2.35045 -0.88286,-2.35045 -1.4339,-2.30324 -1.4339,-2.303236 -2.11666,-2.167176 -2.11667,-2.167175 -1.68349,-1.137349 -1.68349,-1.137348 -1.69633,-0.769152 -1.69633,-0.769152 -2.17643,-0.521784 -2.17643,-0.521788 -2.51354,0.0028 -2.51354,0.0028 -1.76898,0.374912 -1.76898,0.374914 -1.61208,0.651148 -1.61207,0.651144 -1.4817,0.887577 -1.48169,0.887574 -1.94529,1.807416 -1.94528,1.807416 -1.33021,1.764459 -1.3302,1.764458 -1.29487,2.513542 -1.29487,2.51355 -0.67303,2.24895 -0.67303,2.24896 -0.32867,1.71979 -0.32867,1.7198 0.006,4.23333 0.006,4.23333 0.32304,1.71979 0.32304,1.71979 0.67533,2.24896 0.67533,2.24896 0.7571,1.67127 0.7571,1.67127 1.25687,1.89061 1.25687,1.89061 1.72162,1.825 1.72162,1.825 1.59417,1.12995 1.59418,1.12994 1.32291,0.65648 1.32292,0.65649 1.39261,0.4559 1.3926,0.4559 1.25323,0.21102 1.25323,0.21103 2.45855,0.0311 2.45855,0.0311 1.93402,-0.39949 z m -142.06094,7.21893 -0.12835,-0.33715 0.068,-34.79271 0.068,-34.792704 h 4.49792 4.49792 v 35.057294 35.05729 l -4.43761,0.0726 -4.43761,0.0726 z m 28.04595,2.7e-4 -0.12846,-0.33742 0.068,-34.79271 0.068,-34.792704 3.81569,-0.07369 3.81568,-0.07369 0.21322,0.213214 0.21321,0.213212 0.1802,6.012037 0.18021,6.012037 0.28881,-0.0057 0.28881,-0.0057 1.05111,-1.466972 1.05112,-1.466971 1.81779,-1.846863 1.8178,-1.846866 1.89359,-1.417791 1.89359,-1.417791 1.75455,-0.958233 1.75454,-0.958236 2.10576,-0.768504 2.10575,-0.768506 2.22512,-0.427508 2.22512,-0.427511 3.43958,-0.0042 3.43958,-0.0042 1.71979,0.278302 1.7198,0.278302 1.71979,0.495361 1.71979,0.495361 1.45521,0.617939 1.45521,0.617937 1.76108,1.044514 1.76109,1.044514 1.7102,1.483143 1.71021,1.483143 1.36705,1.5875 1.36706,1.5875 1.18467,2.38125 1.18467,2.38125 0.59157,2.248958 0.59156,2.248952 v 25.66459 25.66458 l -4.33043,0.0728 -4.33045,0.0728 -0.36591,-0.30368 -0.36591,-0.30368 v -24.09393 -24.09393 l -0.43138,-1.73669 -0.43138,-1.736694 -0.79382,-1.5875 -0.79382,-1.587499 -2.28054,-2.268562 -2.28052,-2.268561 -1.45521,-0.820827 -1.45521,-0.82083 -2.11667,-0.737095 -2.11666,-0.737097 -3.83646,-0.0098 -3.83646,-0.0098 -2.06353,0.597906 -2.06354,0.597905 -1.64063,0.82228 -1.64063,0.82228 -1.75793,1.295905 -1.75792,1.295906 -1.77747,1.884211 -1.77747,1.884212 -1.39238,2.14641 -1.39237,2.14641 -0.52985,1.05833 -0.52986,1.05833 -0.67586,1.88388 -0.67586,1.88389 -0.45998,1.95257 -0.45998,1.95258 -0.15341,19.84375 -0.15341,19.84375 -4.17291,0.0729 -4.1729,0.0729 -0.12847,-0.33747 z m -25.65698,-85.611065 -0.52916,-0.188564 -0.81116,-0.443712 -0.81115,-0.443712 -0.72835,-1.051009 -0.72835,-1.051009 -0.37872,-1.258411 -0.37873,-1.258411 v -1.260681 -1.260681 l 0.30837,-1.335941 0.30837,-1.335942 0.7422,-0.900415 0.7422,-0.900415 1.26453,-0.597953 1.26454,-0.597953 1.72021,-0.0029 1.72021,-0.0029 1.05791,0.54489 1.05792,0.544891 0.84864,0.884067 0.84864,0.884067 0.40813,1.156758 0.40813,1.156759 v 1.917844 1.917845 l -0.38166,1.081726 -0.38165,1.081726 -0.56789,0.768111 -0.56789,0.768111 -1.08064,0.607355 -1.08064,0.607355 -1.87242,0.07884 -1.87242,0.07884 z"
         id="path867"
         inkscape:connector-curvature="0"
         sodipodi:nodetypes="cccccccccccccccccccccccccccccccccccccccccccccccccccccccccccccccccccccccccccccccccccccccccccccccccccccccccccccccccccccccccccccccccccccccccccccccccccccccccccccccccccccccccccccccccccccccccccccccccccccccccccccccccccccccccccccccccccccccccccccccccccccccccccccccccccccccccccccccccccccccccccccccccccccccccccccccccccccccccccccccccccccccccccccccccccccccccccccccccccccccccccccccccccccccccccccccccccccccccccccccccccccccccccccccccccccccccccccccccccccccccccccccccccccccccccccccccccccccccccccccccccccccccccccccccccccccccccccccccccccccccccccccccccccccccccccccccccccccccccccccccccccccccccccccccccccccccccccccccccccccccccccccccccccccccccccccccccccccccccccccccccccccccccccccccccccccccccccccccccccccccccccccccccccccccccccccccccccccccccccccccccccccccccccccccccccccccccccccccccccccccccccccccccccccccccccccccccccccccccccccccccccccccccccccccccccccccccccccccccccccccccccccccccccccccccccccccccccccccccccccccccccccccccccccccccccccccccccccccccccccccccccccccccccccccccccccccccccccccccccccccccccccccccccccccccccccccccccc" />
      <path
         style="fill:#3b3b3b;stroke-width:0.26458332"
         d="m -918.99665,128.31062 3.7e-4,-46.242825 4.0349,0.07304 4.03489,0.07304 0.20498,3.307291 0.20497,3.307292 0.15122,2.711979 0.15121,2.711979 h 0.34939 0.34939 l 1.5286,-2.182812 1.5286,-2.182813 2.0345,-2.035757 2.0345,-2.035754 2.02614,-1.322679 2.02614,-1.322678 2.03956,-0.78626 2.03955,-0.786259 2.24896,-0.429774 2.24896,-0.42977 h 3.30729 3.30729 l 2.15286,0.411792 2.15286,0.411789 1.67252,0.549061 1.67253,0.549061 1.73958,0.876038 1.73958,0.876038 2.10795,1.566013 2.10796,1.566016 1.87863,2.01586 1.87863,2.01586 1.59316,2.330702 1.59316,2.330701 0.92674,1.852083 0.92674,1.852083 0.66715,1.857633 0.66715,1.85763 0.41414,1.71425 0.41414,1.71424 0.29028,1.5875 0.29028,1.5875 0.15129,4.10104 0.15129,4.10104 -0.29917,2.724 -0.29918,2.724 -0.40685,1.96969 -0.40685,1.96969 -0.66992,2.05319 -0.66991,2.05318 -1.01687,2.17066 -1.01686,2.17066 -1.66373,2.45955 -1.66373,2.45955 -2.7909,2.80324 -2.7909,2.80325 -2.0717,1.3863 -2.0717,1.3863 -2.16163,1.02698 -2.16163,1.02699 -2.33395,0.66733 -2.33394,0.66733 -2.42856,0.29959 -2.42855,0.29959 -2.77813,-0.14743 -2.77812,-0.14743 -1.45521,-0.30015 -1.45521,-0.30014 -1.71979,-0.54877 -1.71979,-0.54878 -2.16548,-0.99481 -2.16548,-0.99481 -2.79795,-1.90454 -2.79795,-1.90454 -0.39439,0.15134 -0.39438,0.15134 v 14.03953 14.03952 l -0.33073,0.11462 -0.33073,0.11462 -4.03526,0.0755 -4.03527,0.0755 z m 35.58683,16.2 1.85208,-0.57867 1.5875,-0.79786 1.5875,-0.79787 1.13598,-0.77919 1.13598,-0.7792 1.80852,-1.80852 1.80852,-1.80852 1.52726,-2.29532 1.52725,-2.29533 0.99899,-2.31718 0.99899,-2.31718 0.66809,-2.48804 0.66808,-2.48804 0.27732,-2.56926 0.27732,-2.56926 -0.005,-2.06095 -0.005,-2.06095 -0.38036,-2.77812 -0.38036,-2.77813 -0.50706,-1.71979 -0.50705,-1.71979 -0.65058,-1.5875 -0.65057,-1.5875 -0.80633,-1.40971 -0.80634,-1.409702 -1.64195,-2.084567 -1.64195,-2.084565 -1.76325,-1.441542 -1.76325,-1.441543 -1.85208,-0.920385 -1.85208,-0.920387 -1.5875,-0.489006 -1.5875,-0.489008 -3.96875,-0.0013 -3.96875,-0.0013 -2.11667,0.739532 -2.11667,0.739531 -1.85208,1.093759 -1.85208,1.093755 -2.03576,2.035159 -2.03576,2.035159 -1.35253,2.071876 -1.35254,2.071874 -0.88173,1.86153 -0.88174,1.86153 -0.54216,1.85209 -0.54217,1.85208 -0.31126,1.45521 -0.31126,1.45521 -0.12482,12.25661 -0.12482,12.25661 1.14723,1.07113 1.14723,1.07112 2.37853,1.84859 2.37852,1.84859 1.9871,0.99488 1.9871,0.99488 1.5875,0.57075 1.5875,0.57074 1.71979,0.38623 1.7198,0.38622 3.70416,-0.11026 3.70417,-0.11025 1.85208,-0.57867 z m 177.40313,8.73977 -1.71979,-0.23948 -1.85208,-0.44826 -1.85209,-0.44825 -1.6656,-0.62281 -1.6656,-0.6228 -1.64169,-0.82576 -1.64169,-0.82576 -2.36201,-1.61431 -2.36201,-1.6143 -2.21573,-2.09737 -2.21573,-2.09738 -1.71136,-2.27336 -1.71137,-2.27335 -1.28733,-2.51354 -1.28734,-2.51354 -0.68014,-2.04592 -0.68013,-2.04592 -0.39455,-1.92283 -0.39454,-1.92283 -0.27857,-2.24202 -0.27857,-2.24202 v -2.792 -2.79201 l 0.27857,-2.24202 0.27857,-2.24202 0.39454,-1.92283 0.39455,-1.92283 0.68083,-2.04592 0.68083,-2.04592 1.01009,-2.116662 1.01009,-2.116667 1.28966,-1.921385 1.28965,-1.921386 1.55626,-1.868273 1.55625,-1.868273 1.99995,-1.654257 1.99995,-1.654257 1.27077,-0.862277 1.27076,-0.862277 2.03653,-1.008375 2.03653,-1.008377 2.06266,-0.683043 2.06266,-0.683043 2.39063,-0.414782 2.39064,-0.414782 3.51331,-0.0027 3.51331,-0.0027 2.41483,0.418981 2.41482,0.418978 1.7894,0.550929 1.78941,0.550925 1.65403,0.748036 1.65404,0.748038 2.18242,1.428554 2.18242,1.428557 1.69447,1.422995 1.69447,1.422995 1.70438,1.993508 1.70437,1.993511 1.31299,1.984375 1.31298,1.984375 0.92336,1.906447 0.92336,1.906452 0.78864,2.32688 0.78863,2.32689 0.50705,2.91042 0.50706,2.91041 0.16377,2.77813 0.16378,2.77812 -0.26557,2.91042 -0.26557,2.91042 -0.42565,2.11666 -0.42566,2.11667 -0.69232,2.11616 -0.69233,2.11615 -0.64206,1.45572 -0.64205,1.45572 -1.28296,2.11667 -1.28297,2.11666 -1.75918,2.18905 -1.75917,2.18904 -2.14084,1.88648 -2.14084,1.88648 -2.39052,1.54593 -2.39051,1.54593 -1.97395,0.82176 -1.97395,0.82176 -2.53306,0.64864 -2.53306,0.64864 -3.70417,0.10344 -3.70417,0.10344 -1.71979,-0.23948 z m 8.36444,-8.4518 2.14673,-0.51469 1.48278,-0.65576 1.48279,-0.65575 1.92673,-1.2406 1.92674,-1.2406 2.26194,-2.28345 2.26193,-2.28346 1.38148,-2.24665 1.38146,-2.24665 0.80789,-2.09491 0.80788,-2.09491 0.49636,-2.00844 0.49636,-2.00844 0.27284,-3.18057 0.27284,-3.18057 -0.26399,-3.00828 -0.26399,-3.00827 -0.55807,-2.27782 -0.55807,-2.27782 -0.96786,-2.24896 -0.96787,-2.24896 -1.2097,-1.852079 -1.20971,-1.852083 -1.15906,-1.302427 -1.15905,-1.302427 -1.93662,-1.652413 -1.93661,-1.65241 -2.03561,-1.053645 -2.0356,-1.053645 -1.85209,-0.585047 -1.85208,-0.585044 -3.31709,-0.135908 -3.31708,-0.135906 -2.23917,0.558501 -2.23916,0.558501 -2.38125,1.185995 -2.38125,1.185994 -1.77997,1.529731 -1.77996,1.529734 -1.34562,1.587499 -1.34561,1.5875 -1.22748,1.960249 -1.22748,1.96026 -0.98538,2.44864 -0.98539,2.44864 -0.59409,2.60256 -0.5941,2.60257 0.005,4.7625 0.005,4.7625 0.59805,2.64435 0.59804,2.64434 0.78347,1.98586 0.78348,1.98586 0.92904,1.70123 0.92904,1.70122 1.13994,1.47378 1.13995,1.47377 1.2863,1.30043 1.28631,1.30042 1.31065,1.03849 1.31064,1.03848 1.73206,0.86522 1.73207,0.86523 1.34281,0.43979 1.34281,0.43979 1.17073,0.22969 1.17073,0.22969 2.77813,0.0271 2.77812,0.0271 2.14673,-0.51469 z m -142.38351,6.809 -0.12847,-0.33747 0.068,-34.52813 0.068,-34.528121 h 4.23333 4.23333 v 34.792711 34.7927 l -4.1729,0.0729 -4.1729,0.0729 z m 28.04597,2.7e-4 -0.12861,-0.33774 0.068,-34.52813 0.068,-34.528121 3.64345,-0.07365 3.64344,-0.07365 0.12492,0.338232 0.12491,0.33823 0.20039,5.931625 0.20039,5.931622 0.29965,0.09934 0.29964,0.09933 1.71408,-2.194499 1.71408,-2.194499 1.84528,-1.740122 1.84527,-1.740123 2.23104,-1.484489 2.23105,-1.484487 1.78669,-0.801632 1.78669,-0.801632 1.38368,-0.416917 1.38369,-0.416915 1.98437,-0.385442 1.98438,-0.385442 3.60879,-4.5e-5 3.60879,-4.5e-5 2.10888,0.400047 2.10888,0.400047 1.82295,0.62016 1.82296,0.620159 1.4552,0.736214 1.45521,0.736211 1.5875,1.0697 1.5875,1.069697 1.8104,1.737944 1.81041,1.737945 1.27322,1.902672 1.27322,1.902671 0.80618,2.090492 0.80618,2.090491 0.41758,2.489131 0.41758,2.48913 -0.0741,24.47395 -0.074,24.47396 h -4.36562 -4.36563 l -0.13891,-24.87083 -0.1389,-24.87083 -0.35007,-1.05834 -0.35008,-1.058331 -0.95929,-1.852083 -0.95929,-1.852083 -2.00653,-1.984375 -2.00653,-1.984375 -1.70457,-0.998958 -1.70458,-0.998958 -2.11667,-0.711494 -2.11666,-0.711494 -3.96875,-0.0093 -3.96875,-0.0093 -1.97298,0.619559 -1.97298,0.619556 -1.86348,0.937903 -1.86348,0.937903 -1.45521,1.120357 -1.45521,1.120354 -2.06124,2.159151 -2.06124,2.159148 -1.20849,1.86813 -1.20848,1.86813 -1.00822,2.15845 -1.00823,2.15844 -0.45688,1.7198 -0.45688,1.71979 -0.26164,1.19062 -0.26165,1.19063 -0.1629,19.71145 -0.1629,19.71146 -3.90818,0.0733 -3.90818,0.0733 -0.12861,-0.33783 z m -26.18628,-85.795637 -1.05833,-0.371128 -0.99591,-1.110686 -0.99591,-1.110686 -0.42714,-1.469319 -0.42714,-1.46932 0.15355,-1.831594 0.15356,-1.831594 0.60803,-1.224929 0.60804,-1.22493 1.5875,-0.838668 1.5875,-0.838668 1.34841,-0.02123 1.34841,-0.02123 0.90055,0.434548 0.90055,0.434547 0.88837,0.658968 0.88836,0.658967 0.6304,1.353881 0.63041,1.353881 0.003,1.801066 0.003,1.801066 -0.30891,1.226783 -0.30891,1.226783 -1.1195,1.119502 -1.1195,1.119502 -1.01899,0.282944 -1.01898,0.282944 -1.19063,-0.01014 -1.19062,-0.01014 -1.05834,-0.371128 z"
         id="path865"
         inkscape:connector-curvature="0" />
    </g>
    <g
       id="g855"
       transform="translate(3.0238095,161.01786)" />
  </g>
</svg>
